<?xml version="1.0" standalone="no"?>
<!DOCTYPE svg PUBLIC "-//W3C//DTD SVG 20010904//EN"
 "http://www.w3.org/TR/2001/REC-SVG-20010904/DTD/svg10.dtd">
<svg version="1.0" xmlns="http://www.w3.org/2000/svg"
 width="794.000000pt" height="794.000000pt" viewBox="0 0 794.000000 794.000000"
 preserveAspectRatio="xMidYMid meet">
<metadata>
Created by potrace 1.14, written by Peter Selinger 2001-2017
</metadata>
<g transform="translate(0.000000,794.000000) scale(0.100000,-0.100000)"
fill="#000000" stroke="none">
<path d="M0 3970 l0 -3970 3970 0 3970 0 0 3970 0 3970 -3970 0 -3970 0 0
-3970z m5503 912 c56 -39 61 -55 12 -46 -53 10 -130 -13 -164 -48 -59 -60 -69
-98 -81 -304 -7 -104 -14 -192 -17 -197 -2 -4 -9 -83 -14 -175 -17 -314 -41
-413 -111 -479 -30 -27 -30 -16 0 20 25 28 3 19 -38 -16 -104 -89 -287 -96
-377 -15 -12 11 -26 17 -32 13 -20 -12 -53 79 -45 122 18 100 120 155 188 102
40 -32 30 -109 -14 -109 -26 0 -25 -25 1 -51 42 -42 123 -7 160 67 18 38 22
71 29 217 4 94 16 291 26 437 20 304 20 308 -56 349 -32 18 -60 25 -97 25 -29
0 -53 4 -53 8 0 16 48 30 255 73 271 56 355 57 428 7z m1967 -1 c0 -5 -9 -12
-20 -16 -10 -3 -47 -36 -81 -73 -57 -61 -109 -136 -261 -373 l-56 -87 -12
-165 c-13 -162 -12 -166 9 -210 12 -25 37 -56 56 -68 60 -41 50 -43 -78 -18
-26 5 -93 9 -147 9 -82 0 -100 -3 -100 -15 0 -10 -10 -14 -37 -13 -21 1 -47
-2 -58 -6 -12 -5 -6 5 16 26 84 78 89 90 102 266 l11 159 -36 59 c-20 33 -57
95 -83 139 -78 135 -177 268 -213 286 -18 10 -34 21 -35 25 -2 8 108 21 339
39 56 5 84 3 88 -4 4 -6 0 -14 -8 -17 -19 -7 -66 -86 -66 -112 0 -17 76 -150
122 -213 l17 -24 21 25 c48 57 148 207 157 235 13 39 3 66 -38 98 -19 14 -31
29 -27 32 3 3 72 9 154 14 218 12 264 12 264 2z m-1279 -114 c155 -50 268
-156 325 -302 15 -40 19 -75 19 -175 -1 -122 -2 -127 -35 -195 -36 -71 -119
-170 -174 -206 l-31 -21 33 31 c41 39 34 40 -20 1 -22 -16 -36 -30 -29 -30 32
0 -27 -40 -79 -54 -16 -4 -12 1 13 14 53 29 41 35 -17 10 -60 -27 -181 -50
-260 -50 -82 0 -203 32 -289 75 -37 19 -65 30 -62 25 13 -21 -13 -9 -48 23
-48 42 -103 135 -128 217 -68 221 77 492 321 598 98 43 193 61 305 57 61 -2
131 -10 156 -18z m-2015 -384 c25 -54 70 -157 99 -229 77 -187 200 -451 232
-497 15 -21 38 -47 51 -58 33 -26 26 -30 -28 -17 -44 10 -182 5 -229 -8 -23
-7 -24 -8 -5 -15 14 -6 9 -8 -19 -8 -21 -1 -54 -8 -74 -16 -20 -8 -38 -13 -41
-11 -2 3 18 27 46 54 61 59 70 88 48 145 -26 68 -27 69 -97 68 -88 0 -250 -29
-271 -48 -10 -9 -24 -13 -33 -9 -10 4 -25 -8 -45 -36 -55 -76 -52 -114 13
-185 l42 -46 -42 6 c-23 4 -44 3 -47 -2 -3 -5 -50 -16 -103 -25 -97 -17 -136
-28 -180 -49 -40 -18 -36 0 13 59 26 32 58 83 71 114 27 63 22 51 101 230 33
74 79 180 102 235 52 122 127 299 145 340 7 17 15 39 17 50 2 16 18 23 83 37
44 9 86 17 93 17 7 1 34 -43 58 -96z m-456 17 c0 -5 -11 -20 -24 -33 -28 -28
-99 -167 -174 -337 -27 -63 -82 -184 -121 -268 -39 -84 -71 -154 -71 -157 0
-4 -64 -144 -96 -209 -8 -16 -14 -35 -14 -42 0 -7 -19 -15 -41 -19 -23 -4 -57
-14 -75 -21 -44 -19 -44 -19 -37 20 6 37 -5 72 -57 196 -53 123 -71 170 -109
280 -21 58 -46 125 -58 150 -12 25 -32 70 -46 100 -23 52 -70 110 -88 110 -5
0 -9 7 -9 15 0 8 9 15 19 15 10 0 81 15 157 34 164 41 214 51 214 41 0 -3 -14
-18 -31 -33 -36 -30 -59 -77 -59 -121 0 -16 13 -65 29 -108 51 -136 139 -345
150 -356 11 -11 12 -8 80 153 95 226 154 385 155 421 1 39 -25 79 -51 79 -7 0
-13 7 -13 15 0 10 10 15 27 15 15 0 82 13 148 30 66 16 134 31 150 33 17 2 33
5 38 6 4 0 7 -3 7 -9z m-2197 -255 c25 -11 21 -25 -8 -25 -32 0 -97 -32 -126
-63 -57 -59 -65 -111 -109 -672 -6 -71 -14 -173 -19 -225 -6 -52 -13 -131 -16
-175 -9 -114 -42 -253 -72 -305 -29 -50 -88 -116 -118 -132 -11 -6 -1 9 22 33
51 54 93 116 93 138 0 9 -13 -7 -29 -35 -43 -74 -116 -135 -208 -173 -72 -31
-84 -33 -158 -28 -85 5 -169 35 -231 82 -46 35 -84 117 -84 181 0 171 187 309
325 241 86 -42 111 -143 46 -184 -14 -9 -30 -8 -65 2 -57 17 -97 11 -127 -21
-29 -31 -20 -80 25 -123 69 -67 194 -48 270 41 60 69 61 81 111 696 32 392 42
548 38 579 -6 37 -62 93 -93 93 -11 0 -20 6 -20 13 0 13 59 27 175 42 22 3 51
8 65 11 14 3 41 8 60 10 19 2 55 8 80 12 45 8 139 1 173 -13z m1133 -20 c7
-48 3 -81 -16 -130 -10 -26 -13 -28 -21 -12 -13 23 -48 22 -139 -4 -109 -32
-111 -34 -113 -165 l-2 -109 50 3 c55 2 137 38 187 80 l31 27 -7 -43 c-21
-131 -45 -193 -65 -163 -10 15 -76 9 -152 -13 -64 -19 -76 -43 -84 -165 l-6
-104 43 7 c99 16 239 67 277 101 21 19 40 32 43 29 3 -2 -2 -37 -10 -76 -14
-64 -14 -75 0 -115 l16 -43 -33 0 c-19 0 -35 -5 -37 -11 -4 -12 -95 -31 -136
-30 -13 0 -21 -3 -18 -8 7 -11 -37 -23 -57 -15 -8 3 -22 -3 -32 -12 -10 -10
-33 -19 -51 -20 -72 -6 -243 -64 -264 -90 -7 -8 -16 -14 -21 -14 -16 0 -9 23
17 57 40 53 53 94 64 214 6 63 15 145 20 183 9 71 0 106 -27 106 -20 0 -15 17
11 43 25 25 31 59 41 227 5 87 -7 114 -61 136 -19 8 -34 18 -34 22 0 4 73 25
163 46 185 44 297 73 347 92 60 22 68 19 76 -31z m-621 -132 c-4 -10 -14 -49
-21 -86 -16 -78 -39 -122 -50 -94 -9 23 -68 21 -169 -6 -68 -19 -81 -26 -87
-47 -8 -29 -28 -233 -23 -238 7 -8 222 62 248 80 15 11 30 18 32 16 6 -6 -35
-159 -52 -192 -13 -26 -16 -27 -25 -12 -11 19 -61 16 -155 -10 -48 -13 -53
-17 -62 -52 -13 -51 -23 -232 -13 -232 19 0 258 72 266 81 6 5 17 9 25 9 8 0
26 12 39 28 l23 27 -6 -30 c-3 -16 -9 -72 -12 -123 l-5 -92 -54 -16 c-30 -8
-62 -13 -73 -9 -10 3 -49 -5 -87 -19 -38 -13 -95 -32 -127 -41 -31 -10 -69
-28 -85 -41 -15 -13 -31 -24 -36 -24 -6 0 -1 7 10 16 19 15 19 16 -1 9 -11 -4
-29 -9 -40 -12 -48 -11 -51 -13 -35 -24 11 -7 8 -8 -10 -4 -19 5 -32 0 -50
-19 -39 -43 -57 -31 -18 12 44 48 60 120 84 361 l17 175 -27 21 -26 21 27 27
c30 30 32 38 39 224 l4 122 -35 36 c-24 23 -31 37 -23 40 7 2 76 16 153 30
143 27 257 54 355 86 74 24 94 24 85 2z m2410 -423 c-16 -4 -48 -8 -70 -7
l-40 0 40 7 c22 4 54 7 70 7 l30 1 -30 -8z m595 6 c0 -2 -7 -7 -16 -10 -8 -3
-12 -2 -9 4 6 10 25 14 25 6z"/>
<path d="M5878 4560 c-73 -22 -188 -106 -174 -128 3 -6 -8 -33 -26 -62 -78
-125 -15 -282 141 -353 35 -17 66 -21 131 -21 103 0 173 28 249 99 65 61 91
117 91 197 0 162 -132 279 -313 277 -40 0 -84 -4 -99 -9z m-138 -109 c0 -5 -7
-12 -16 -15 -14 -5 -15 -4 -4 9 14 17 20 19 20 6z"/>
<path d="M3997 4142 c-10 -31 -34 -93 -52 -137 -50 -117 -50 -121 5 -116 53 4
179 27 186 34 9 9 -103 277 -116 277 -3 0 -13 -26 -23 -58z"/>
<path d="M3678 3463 c7 -3 16 -2 19 1 4 3 -2 6 -13 5 -11 0 -14 -3 -6 -6z"/>
<path d="M1920 3024 l-25 -15 30 6 c17 4 34 11 40 16 15 15 -17 10 -45 -7z"/>
</g>
</svg>
